
<svg width="40" height="40" viewBox="0 0 40 40" fill="none" xmlns="http://www.w3.org/2000/svg">
  <rect width="40" height="40" rx="20" fill="url(#paint0_linear)" />
  <path d="M20 10C16.13 10 13 13.13 13 17C13 18.77 13.64 20.36 14.69 21.57L13.23 27L18.56 24.61C19.03 24.74 19.51 24.81 20 24.81C23.87 24.81 27 21.68 27 17.81C27 14 23.87 10 20 10Z" fill="white"/>
  <path d="M17 16C17.5523 16 18 15.5523 18 15C18 14.4477 17.5523 14 17 14C16.4477 14 16 14.4477 16 15C16 15.5523 16.4477 16 17 16Z" fill="#9B87F5"/>
  <path d="M23 16C23.5523 16 24 15.5523 24 15C24 14.4477 23.5523 14 23 14C22.4477 14 22 14.4477 22 15C22 15.5523 22.4477 16 23 16Z" fill="#9B87F5"/>
  <path d="M16 20H24V22C24 23.1 23.1 24 22 24H18C16.9 24 16 23.1 16 22V20Z" fill="#9B87F5"/>
  <defs>
    <linearGradient id="paint0_linear" x1="0" y1="0" x2="40" y2="40" gradientUnits="userSpaceOnUse">
      <stop stop-color="#9B87F5"/>
      <stop offset="1" stop-color="#7E69AB"/>
    </linearGradient>
  </defs>
</svg>
